<svg width="108" height="44" viewBox="0 0 108 44" fill="none" xmlns="http://www.w3.org/2000/svg">
<path d="M26.312 0.0159998C26.184 1.424 26.088 2.784 26.024 4.096C25.992 5.408 25.976 6.416 25.976 7.12C25.976 7.76 25.992 8.368 26.024 8.944C26.056 9.52 26.088 10 26.12 10.384H25.016C24.696 8.048 24.2 6.208 23.528 4.864C22.856 3.488 21.976 2.528 20.888 1.984C19.832 1.408 18.584 1.12 17.144 1.12H15.176C14.248 1.12 13.544 1.2 13.064 1.36C12.584 1.52 12.264 1.84 12.104 2.32C11.944 2.8 11.864 3.536 11.864 4.528V29.488C11.864 30.48 11.944 31.216 12.104 31.696C12.264 32.176 12.584 32.496 13.064 32.656C13.544 32.816 14.248 32.896 15.176 32.896H17.528C18.968 32.896 20.232 32.592 21.32 31.984C22.44 31.344 23.384 30.272 24.152 28.768C24.952 27.264 25.56 25.232 25.976 22.672H27.08C26.984 23.696 26.936 25.04 26.936 26.704C26.936 27.44 26.952 28.48 26.984 29.824C27.016 31.168 27.112 32.56 27.272 34C25.64 33.936 23.8 33.904 21.752 33.904C19.704 33.872 17.88 33.856 16.28 33.856C15.48 33.856 14.456 33.856 13.208 33.856C11.96 33.856 10.616 33.872 9.176 33.904C7.736 33.904 6.28 33.92 4.808 33.952C3.336 33.952 1.944 33.968 0.632 34V33.04C1.656 32.976 2.424 32.848 2.936 32.656C3.448 32.464 3.784 32.08 3.944 31.504C4.136 30.928 4.232 30.064 4.232 28.912V5.104C4.232 3.92 4.136 3.056 3.944 2.512C3.784 1.936 3.432 1.552 2.888 1.36C2.376 1.136 1.624 1.008 0.632 0.975999V0.0159998C1.944 0.0479994 3.336 0.079999 4.808 0.111999C6.28 0.111999 7.736 0.127998 9.176 0.159998C10.616 0.159998 11.96 0.159998 13.208 0.159998C14.456 0.159998 15.48 0.159998 16.28 0.159998C17.752 0.159998 19.416 0.159998 21.272 0.159998C23.16 0.127998 24.84 0.079999 26.312 0.0159998ZM18.824 16.432C18.824 16.432 18.824 16.592 18.824 16.912C18.824 17.232 18.824 17.392 18.824 17.392H10.424C10.424 17.392 10.424 17.232 10.424 16.912C10.424 16.592 10.424 16.432 10.424 16.432H18.824ZM20.216 10.096C20.088 11.92 20.024 13.312 20.024 14.272C20.056 15.232 20.072 16.112 20.072 16.912C20.072 17.712 20.088 18.592 20.12 19.552C20.152 20.512 20.232 21.904 20.36 23.728H19.256C19.096 22.608 18.792 21.568 18.344 20.608C17.928 19.648 17.32 18.88 16.52 18.304C15.72 17.696 14.68 17.392 13.4 17.392V16.432C14.36 16.432 15.176 16.24 15.848 15.856C16.52 15.44 17.064 14.912 17.48 14.272C17.928 13.6 18.28 12.896 18.536 12.16C18.792 11.424 18.984 10.736 19.112 10.096H20.216ZM53.4766 9.184V10.144C52.8686 10.304 52.2926 10.688 51.7486 11.296C51.2046 11.872 50.6766 12.864 50.1646 14.272L43.1566 34.096C42.6446 34.064 42.1166 34.048 41.5726 34.048C41.0606 34.048 40.5486 34.064 40.0366 34.096L31.4926 12.88C30.9806 11.632 30.4686 10.88 29.9566 10.624C29.4766 10.336 29.0606 10.192 28.7086 10.192V9.184C29.7326 9.248 30.7886 9.312 31.8766 9.376C32.9966 9.408 34.2126 9.424 35.5246 9.424C36.5166 9.424 37.5566 9.408 38.6446 9.376C39.7646 9.312 40.8046 9.248 41.7646 9.184V10.192C41.0926 10.192 40.4846 10.224 39.9406 10.288C39.4286 10.352 39.0766 10.56 38.8846 10.912C38.6926 11.264 38.7246 11.888 38.9806 12.784L44.5966 27.664L44.1166 28.336L47.9086 17.824C48.5166 16.096 48.7726 14.688 48.6766 13.6C48.5806 12.48 48.2286 11.648 47.6206 11.104C47.0126 10.528 46.1966 10.208 45.1726 10.144V9.184C45.6526 9.216 46.1646 9.248 46.7086 9.28C47.2846 9.28 47.8286 9.296 48.3406 9.328C48.8846 9.328 49.3646 9.328 49.7806 9.328C50.4206 9.328 51.0926 9.312 51.7966 9.28C52.5006 9.248 53.0606 9.216 53.4766 9.184ZM72.5236 8.512C73.8676 8.512 74.9556 8.688 75.7876 9.04C76.6516 9.36 77.3236 9.808 77.8036 10.384C78.3156 10.992 78.6836 11.776 78.9076 12.736C79.1636 13.696 79.2916 14.992 79.2916 16.624V29.536C79.2916 30.88 79.5156 31.792 79.9636 32.272C80.4436 32.752 81.2436 32.992 82.3636 32.992V34C81.7556 33.968 80.8436 33.936 79.6276 33.904C78.4116 33.84 77.2116 33.808 76.0276 33.808C74.8116 33.808 73.6116 33.84 72.4276 33.904C71.2756 33.936 70.3956 33.968 69.7876 34V32.992C70.7476 32.992 71.4196 32.752 71.8036 32.272C72.1876 31.792 72.3796 30.88 72.3796 29.536V14.608C72.3796 13.808 72.2996 13.12 72.1396 12.544C71.9796 11.936 71.6916 11.472 71.2756 11.152C70.8596 10.8 70.2356 10.624 69.4036 10.624C68.5396 10.624 67.7396 10.864 67.0036 11.344C66.2996 11.824 65.7236 12.496 65.2756 13.36C64.8596 14.192 64.6516 15.136 64.6516 16.192V29.536C64.6516 30.88 64.8436 31.792 65.2276 32.272C65.6436 32.752 66.3156 32.992 67.2436 32.992V34C66.6676 33.968 65.8196 33.936 64.6996 33.904C63.6116 33.84 62.4756 33.808 61.2916 33.808C60.0756 33.808 58.8276 33.84 57.5476 33.904C56.2676 33.936 55.3076 33.968 54.6676 34V32.992C55.7876 32.992 56.5716 32.752 57.0196 32.272C57.4996 31.792 57.7396 30.88 57.7396 29.536V14.416C57.7396 12.976 57.5156 11.92 57.0676 11.248C56.6516 10.544 55.8516 10.192 54.6676 10.192V9.184C55.6916 9.28 56.6836 9.328 57.6436 9.328C58.9876 9.328 60.2356 9.28 61.3876 9.184C62.5716 9.056 63.6596 8.88 64.6516 8.656V12.976C65.4516 11.344 66.5396 10.192 67.9156 9.52C69.2916 8.848 70.8276 8.512 72.5236 8.512ZM107.108 9.184V10.144C106.5 10.304 105.924 10.688 105.38 11.296C104.836 11.872 104.308 12.864 103.796 14.272L97.0284 33.28L95.2524 36.64L84.7884 12.88C84.2444 11.632 83.7004 10.88 83.1564 10.624C82.6444 10.336 82.1964 10.192 81.8124 10.192V9.184C82.8684 9.28 83.9564 9.36 85.0764 9.424C86.2284 9.456 87.3324 9.472 88.3884 9.472C89.7004 9.472 90.9004 9.44 91.9884 9.376C93.0764 9.312 94.1004 9.248 95.0604 9.184V10.192C94.4204 10.192 93.8124 10.24 93.2364 10.336C92.6924 10.4 92.3084 10.624 92.0844 11.008C91.8924 11.36 91.9884 11.984 92.3724 12.88L98.4204 27.472L97.9884 27.76L101.54 17.824C102.148 16.096 102.404 14.688 102.308 13.6C102.212 12.48 101.86 11.648 101.252 11.104C100.644 10.528 99.8124 10.208 98.7564 10.144V9.184C99.2684 9.216 99.7964 9.248 100.34 9.28C100.884 9.28 101.428 9.296 101.972 9.328C102.516 9.328 102.996 9.328 103.412 9.328C104.052 9.328 104.724 9.312 105.428 9.28C106.132 9.248 106.692 9.216 107.108 9.184ZM97.0284 33.28L95.2044 38.416C94.8844 39.216 94.5484 39.888 94.1964 40.432C93.8764 41.008 93.5084 41.472 93.0924 41.824C92.6444 42.208 92.0684 42.496 91.3644 42.688C90.6604 42.912 89.8444 43.024 88.9164 43.024C88.1484 43.024 87.3484 42.896 86.5164 42.64C85.7164 42.384 85.0444 41.968 84.5004 41.392C83.9564 40.816 83.6844 40.08 83.6844 39.184C83.6844 38.192 84.0364 37.392 84.7404 36.784C85.4444 36.208 86.3724 35.92 87.5244 35.92C88.5804 35.92 89.4444 36.176 90.1164 36.688C90.7884 37.2 91.1244 37.952 91.1244 38.944C91.1244 39.584 90.9164 40.192 90.5004 40.768C90.1164 41.344 89.5244 41.776 88.7244 42.064C88.8844 42.096 89.0764 42.112 89.3004 42.112C89.5244 42.112 89.7004 42.112 89.8284 42.112C90.7884 42.112 91.6364 41.808 92.3724 41.2C93.1084 40.592 93.7164 39.632 94.1964 38.32L95.8764 33.376L97.0284 33.28Z" fill="#200703"/>
</svg>
